<?xml version="1.0" encoding="UTF-8" standalone="no"?>
<!-- Created with Inkscape (http://www.inkscape.org/) -->

<svg
   width="195mm"
   height="195mm"
   viewBox="0 0 195 195"
   version="1.1"
   id="svg5"
   inkscape:version="1.2 (dc2aeda, 2022-05-15)"
   sodipodi:docname="app-icon.svg"
   xml:space="preserve"
   inkscape:export-filename="logo.png"
   inkscape:export-xdpi="3.9076922"
   inkscape:export-ydpi="3.9076922"
   xmlns:inkscape="http://www.inkscape.org/namespaces/inkscape"
   xmlns:sodipodi="http://sodipodi.sourceforge.net/DTD/sodipodi-0.dtd"
   xmlns:xlink="http://www.w3.org/1999/xlink"
   xmlns="http://www.w3.org/2000/svg"
   xmlns:svg="http://www.w3.org/2000/svg"><sodipodi:namedview
     id="namedview7"
     pagecolor="#505050"
     bordercolor="#eeeeee"
     borderopacity="1"
     inkscape:showpageshadow="0"
     inkscape:pageopacity="0"
     inkscape:pagecheckerboard="0"
     inkscape:deskcolor="#505050"
     inkscape:document-units="mm"
     showgrid="false"
     inkscape:zoom="0.37492096"
     inkscape:cx="136.02867"
     inkscape:cy="536.113"
     inkscape:window-width="1337"
     inkscape:window-height="862"
     inkscape:window-x="164"
     inkscape:window-y="92"
     inkscape:window-maximized="0"
     inkscape:current-layer="g21587" /><defs
     id="defs2"><linearGradient
       inkscape:collect="always"
       id="linearGradient14550"><stop
         style="stop-color:#ff6868;stop-opacity:1;"
         offset="0"
         id="stop14546" /><stop
         style="stop-color:#9263ee;stop-opacity:1;"
         offset="1"
         id="stop14548" /></linearGradient><linearGradient
       inkscape:collect="always"
       id="linearGradient6514"><stop
         style="stop-color:#ff6262;stop-opacity:1;"
         offset="0"
         id="stop6510" /><stop
         style="stop-color:#2f7dff;stop-opacity:1;"
         offset="1"
         id="stop6512" /></linearGradient><linearGradient
       inkscape:collect="always"
       id="linearGradient6488"><stop
         style="stop-color:#ffffff;stop-opacity:1;"
         offset="0"
         id="stop6484" /><stop
         style="stop-color:#ffffff;stop-opacity:1;"
         offset="1"
         id="stop6486" /></linearGradient><linearGradient
       inkscape:collect="always"
       id="linearGradient5717"><stop
         style="stop-color:#9c55ff;stop-opacity:1;"
         offset="0"
         id="stop5713" /><stop
         style="stop-color:#ff55a8;stop-opacity:1;"
         offset="1"
         id="stop5715" /></linearGradient><linearGradient
       inkscape:collect="always"
       id="linearGradient5709"><stop
         style="stop-color:#55b5ff;stop-opacity:1;"
         offset="0"
         id="stop5705" /><stop
         style="stop-color:#b555ff;stop-opacity:1;"
         offset="1"
         id="stop5707" /></linearGradient><linearGradient
       inkscape:collect="always"
       id="linearGradient5645"><stop
         style="stop-color:#dc55ff;stop-opacity:1;"
         offset="0"
         id="stop5641" /><stop
         style="stop-color:#ff556f;stop-opacity:1;"
         offset="1"
         id="stop5643" /></linearGradient><linearGradient
       inkscape:collect="always"
       id="linearGradient5637"><stop
         style="stop-color:#ff5555;stop-opacity:1;"
         offset="0"
         id="stop5633" /><stop
         style="stop-color:#ff5575;stop-opacity:1;"
         offset="1"
         id="stop5635" /></linearGradient><linearGradient
       inkscape:collect="always"
       id="linearGradient3289"><stop
         style="stop-color:#ff55c8;stop-opacity:1;"
         offset="0"
         id="stop3285" /><stop
         style="stop-color:#55afff;stop-opacity:1;"
         offset="1"
         id="stop3287" /></linearGradient><linearGradient
       inkscape:collect="always"
       id="linearGradient2531"><stop
         style="stop-color:#ff5568;stop-opacity:1;"
         offset="0"
         id="stop2527" /><stop
         style="stop-color:#55afff;stop-opacity:1;"
         offset="1"
         id="stop2529" /></linearGradient><linearGradient
       inkscape:collect="always"
       xlink:href="#linearGradient2531"
       id="linearGradient2533"
       x1="138.16267"
       y1="558.83301"
       x2="701.48773"
       y2="558.83301"
       gradientUnits="userSpaceOnUse" /><linearGradient
       inkscape:collect="always"
       xlink:href="#linearGradient3289"
       id="linearGradient3291"
       x1="364.30225"
       y1="255.83685"
       x2="425.6088"
       y2="255.83685"
       gradientUnits="userSpaceOnUse" /><linearGradient
       inkscape:collect="always"
       xlink:href="#linearGradient5637"
       id="linearGradient5639"
       x1="57.769615"
       y1="574.15924"
       x2="104.92848"
       y2="574.15924"
       gradientUnits="userSpaceOnUse" /><linearGradient
       inkscape:collect="always"
       xlink:href="#linearGradient5645"
       id="linearGradient5647"
       x1="-55.411671"
       y1="558.83258"
       x2="22.400463"
       y2="558.83258"
       gradientUnits="userSpaceOnUse" /><linearGradient
       inkscape:collect="always"
       xlink:href="#linearGradient5709"
       id="linearGradient5711"
       x1="734.49939"
       y1="598.9176"
       x2="781.65826"
       y2="598.9176"
       gradientUnits="userSpaceOnUse" /><linearGradient
       inkscape:collect="always"
       xlink:href="#linearGradient5717"
       id="linearGradient5719"
       x1="817.0274"
       y1="590.66486"
       x2="878.33392"
       y2="590.66486"
       gradientUnits="userSpaceOnUse" /><linearGradient
       inkscape:collect="always"
       xlink:href="#linearGradient6488"
       id="linearGradient6492"
       x1="0"
       y1="166.66701"
       x2="295.23801"
       y2="166.66701"
       gradientUnits="userSpaceOnUse" /><linearGradient
       inkscape:collect="always"
       xlink:href="#linearGradient6514"
       id="linearGradient6516"
       x1="92.118179"
       y1="765.39124"
       x2="734.1084"
       y2="765.39124"
       gradientUnits="userSpaceOnUse" /><linearGradient
       inkscape:collect="always"
       xlink:href="#linearGradient14550"
       id="linearGradient14554"
       x1="176.59578"
       y1="743.97528"
       x2="304.23431"
       y2="743.97528"
       gradientUnits="userSpaceOnUse" /><linearGradient
       inkscape:collect="always"
       xlink:href="#linearGradient6488"
       id="linearGradient14777"
       gradientUnits="userSpaceOnUse"
       x1="0"
       y1="166.66701"
       x2="295.23801"
       y2="166.66701" /><linearGradient
       inkscape:collect="always"
       xlink:href="#linearGradient6488"
       id="linearGradient14779"
       gradientUnits="userSpaceOnUse"
       x1="0"
       y1="166.66701"
       x2="295.23801"
       y2="166.66701" /><linearGradient
       inkscape:collect="always"
       xlink:href="#linearGradient6488"
       id="linearGradient14781"
       gradientUnits="userSpaceOnUse"
       x1="0"
       y1="166.66701"
       x2="295.23801"
       y2="166.66701" /><linearGradient
       inkscape:collect="always"
       xlink:href="#linearGradient6488"
       id="linearGradient14783"
       gradientUnits="userSpaceOnUse"
       x1="0"
       y1="166.66701"
       x2="295.23801"
       y2="166.66701" /><linearGradient
       inkscape:collect="always"
       xlink:href="#linearGradient6488"
       id="linearGradient14785"
       gradientUnits="userSpaceOnUse"
       x1="0"
       y1="166.66701"
       x2="295.23801"
       y2="166.66701" /><linearGradient
       inkscape:collect="always"
       xlink:href="#linearGradient6488"
       id="linearGradient14787"
       gradientUnits="userSpaceOnUse"
       x1="0"
       y1="166.66701"
       x2="295.23801"
       y2="166.66701" /><linearGradient
       inkscape:collect="always"
       xlink:href="#linearGradient6488"
       id="linearGradient14789"
       gradientUnits="userSpaceOnUse"
       x1="0"
       y1="166.66701"
       x2="295.23801"
       y2="166.66701" /><linearGradient
       inkscape:collect="always"
       xlink:href="#linearGradient6488"
       id="linearGradient14791"
       gradientUnits="userSpaceOnUse"
       x1="0"
       y1="166.66701"
       x2="295.23801"
       y2="166.66701" /><linearGradient
       inkscape:collect="always"
       xlink:href="#linearGradient6488"
       id="linearGradient14793"
       gradientUnits="userSpaceOnUse"
       x1="0"
       y1="166.66701"
       x2="295.23801"
       y2="166.66701" /><linearGradient
       inkscape:collect="always"
       xlink:href="#linearGradient6488"
       id="linearGradient14795"
       gradientUnits="userSpaceOnUse"
       x1="0"
       y1="166.66701"
       x2="295.23801"
       y2="166.66701" /><linearGradient
       inkscape:collect="always"
       xlink:href="#linearGradient6488"
       id="linearGradient14797"
       gradientUnits="userSpaceOnUse"
       x1="0"
       y1="166.66701"
       x2="295.23801"
       y2="166.66701" /><linearGradient
       inkscape:collect="always"
       xlink:href="#linearGradient6488"
       id="linearGradient14799"
       gradientUnits="userSpaceOnUse"
       x1="0"
       y1="166.66701"
       x2="295.23801"
       y2="166.66701" /><linearGradient
       inkscape:collect="always"
       xlink:href="#linearGradient6488"
       id="linearGradient14801"
       gradientUnits="userSpaceOnUse"
       x1="0"
       y1="166.66701"
       x2="295.23801"
       y2="166.66701" /><linearGradient
       inkscape:collect="always"
       xlink:href="#linearGradient6488"
       id="linearGradient14803"
       gradientUnits="userSpaceOnUse"
       x1="0"
       y1="166.66701"
       x2="295.23801"
       y2="166.66701" /><linearGradient
       inkscape:collect="always"
       xlink:href="#linearGradient6488"
       id="linearGradient14805"
       gradientUnits="userSpaceOnUse"
       x1="0"
       y1="166.66701"
       x2="295.23801"
       y2="166.66701" /><linearGradient
       inkscape:collect="always"
       xlink:href="#linearGradient6488"
       id="linearGradient14807"
       gradientUnits="userSpaceOnUse"
       x1="0"
       y1="166.66701"
       x2="295.23801"
       y2="166.66701" /><linearGradient
       inkscape:collect="always"
       xlink:href="#linearGradient6488"
       id="linearGradient14809"
       gradientUnits="userSpaceOnUse"
       x1="0"
       y1="166.66701"
       x2="295.23801"
       y2="166.66701" /><linearGradient
       inkscape:collect="always"
       xlink:href="#linearGradient6488"
       id="linearGradient14811"
       gradientUnits="userSpaceOnUse"
       x1="0"
       y1="166.66701"
       x2="295.23801"
       y2="166.66701" /><linearGradient
       inkscape:collect="always"
       xlink:href="#linearGradient6488"
       id="linearGradient14813"
       gradientUnits="userSpaceOnUse"
       x1="0"
       y1="166.66701"
       x2="295.23801"
       y2="166.66701" /><linearGradient
       inkscape:collect="always"
       xlink:href="#linearGradient6488"
       id="linearGradient14815"
       gradientUnits="userSpaceOnUse"
       x1="0"
       y1="166.66701"
       x2="295.23801"
       y2="166.66701" /></defs><g
     inkscape:groupmode="layer"
     id="layer6"
     inkscape:label="Layer 5"
     transform="translate(-10.764129,-100.27635)"
     style="display:inline"><rect
       style="fill:#000000;fill-opacity:1;stroke-width:0.283959"
       id="rect14691"
       width="195"
       height="195"
       x="10.764129"
       y="100.27635"
       ry="18.913044" /></g><g
     inkscape:groupmode="layer"
     id="g21587"
     inkscape:label="Layer 5 copy"
     transform="translate(-10.764129,-100.27635)"
     style="display:inline"><rect
       style="fill:#000000;fill-opacity:1;stroke-width:0.0793509"
       id="rect21585"
       width="57.387653"
       height="51.742023"
       x="38.286598"
       y="172.9639"
       ry="5.0184574" /></g><g
     inkscape:groupmode="layer"
     id="layer5"
     inkscape:label="Layer 4"
     transform="translate(-10.764129,-100.27635)"><path
       style="display:inline;fill:url(#linearGradient14554);fill-opacity:1;stroke-width:1.74847"
       d="m 220.3076,785.93863 v -21.85592 h -21.85591 -21.85591 v -20.10744 -20.10744 h 21.85591 21.85591 v -21.85591 -21.85591 h 20.98168 20.98167 v 21.85591 21.85591 h 20.98168 20.98168 v 20.10744 20.10744 h -20.98168 -20.98168 v 21.85592 21.85591 H 241.28928 220.3076 Z"
       id="path6506"
       transform="scale(0.26458333)" /><path
       style="display:inline;fill:url(#linearGradient6516);fill-opacity:1;stroke-width:1.74847"
       d="m 193.20627,976.66658 c -38.47085,-8.89788 -70.71832,-34.02905 -87.48555,-68.17942 -10.557053,-21.5019 -13.666729,-34.52923 -13.601544,-56.98079 0.04785,-16.48192 1.339019,-23.90077 12.628484,-72.56164 6.91635,-29.81146 17.98637,-77.58335 24.60006,-106.15975 14.13249,-61.06368 17.79843,-69.81003 37.62073,-89.75701 41.22092,-41.48023 106.30708,-41.66438 148.12917,-0.41912 l 12.03801,11.87198 h 85.81625 85.81624 l 10.96247,-10.92796 c 18.0058,-17.94909 37.0367,-27.49211 61.8407,-31.00995 22.73978,-3.22508 49.88371,3.00645 70.47663,16.17957 19.72772,12.61968 38.72044,38.46042 44.13691,60.05097 12.66585,50.4872 46.78258,204.96394 47.59567,215.50792 4.03828,52.36738 -29.60747,105.22515 -79.91333,125.54459 -58.2346,23.52202 -125.02958,0.90176 -157.18718,-53.23175 -3.84208,-6.46769 -7.87682,-14.31657 -8.96608,-17.44196 l -1.9805,-5.68254 -72.82771,0.11138 -72.8277,0.11137 -7.70966,15.99925 c -6.42142,13.32586 -10.21951,18.49764 -22.73015,30.95133 -26.04053,25.92193 -50.37736,36.63792 -85.83364,37.7942 -13.18149,0.42988 -23.72098,-0.18004 -30.59828,-1.77067 z M 667.49198,747.90934 667.94149,631.19876 H 558.64953 449.35757 v 117.16093 117.16093 l 108.84244,-0.45035 108.84245,-0.45036 z m -393.31361,79.07359 c 7.51254,-4.58028 10.82273,-12.83848 10.82273,-27.00036 v -11.42123 l 9.17949,-0.0418 c 14.21888,-0.0645 22.61873,-2.65745 27.97557,-8.63541 l 4.8083,-5.36582 V 743.9752 713.4321 l -4.8083,-5.36583 c -5.35684,-5.97796 -13.75669,-8.5708 -27.97557,-8.63541 l -9.17949,-0.0417 v -11.42123 c 0,-14.14252 -3.30012,-22.39492 -10.82273,-27.06378 -5.33331,-3.31008 -8.08501,-3.55333 -35.04564,-3.09811 l -29.25788,0.49401 -5.71158,5.71554 c -5.39759,5.40133 -5.74499,6.51896 -6.3193,20.32978 l -0.60772,14.61424 -13.89304,0.80425 c -25.04281,1.44971 -29.47215,8.09419 -29.47215,44.21136 0,36.07314 4.18701,42.37703 29.28933,44.0976 l 14.07779,0.96491 0.60675,14.48398 c 0.52633,12.56411 1.18616,15.10726 4.97794,19.18619 2.40415,2.58622 5.94481,5.35311 7.86813,6.14864 1.92332,0.79554 15.69255,1.49337 30.59828,1.55074 24.21476,0.0932 27.71779,-0.27155 32.88909,-3.4244 z"
       id="path6508"
       transform="scale(0.26458333)" /><path
       class="feather_een"
       d="m 199.10884,216.20013 -12.08742,-52.59949 c -4.59851,-14.10933 -17.57769,-23.58827 -32.30889,-23.58827 -9.73604,0 -18.79995,4.11013 -25.28561,11.36667 H 89.065403 c -6.483771,-7.25654 -15.549125,-11.36667 -25.283756,-11.36667 -14.731194,0 -27.711455,9.47894 -32.302256,23.58827 L 19.38526,216.22302 c -0.72182,3.02476 -1.079094,6.07637 -1.079094,9.03651 0,21.93794 17.844794,39.78275 39.781589,39.78275 15.425178,0 29.382443,-8.98462 35.911513,-22.73171 h 30.480802 c 6.52906,13.74709 20.48634,22.73171 35.91147,22.73171 21.93681,0 39.78162,-17.84481 39.78162,-39.78275 -0.001,-2.96014 -0.36369,-6.01175 -1.08252,-9.0594 z m -38.7132,43.15864 c -14.83912,0 -27.43272,-9.49863 -32.11465,-22.73257 H 90.213994 c -4.689736,13.23394 -17.27701,22.73257 -32.115407,22.73257 -18.834072,0 -34.099991,-15.26396 -34.099991,-34.09924 0,-2.6794 0.3599,-5.26811 0.914556,-7.76338 l 11.95797,-52.13151 c 3.710512,-11.3848 14.281972,-19.6696 26.903818,-19.6696 9.263747,0 17.418023,4.50186 22.601145,11.36632 h 45.721425 c 5.1886,-6.86446 13.34325,-11.36632 22.6089,-11.36632 12.62161,0 23.19133,8.2848 26.89814,19.6696 l 11.9573,52.13151 c 0.57494,2.49527 0.91652,5.08398 0.91652,7.76338 0,18.83528 -15.26495,34.09924 -34.09962,34.09924 z m -28.41563,-85.24639 c -6.28136,0 -11.36636,5.08622 -11.36636,11.36668 0,6.27813 5.085,11.36666 11.36636,11.36666 6.27951,0 11.36646,-5.08853 11.36646,-11.36666 0,-6.28046 -5.08695,-11.36668 -11.36646,-11.36668 z m 0,17.04829 c -3.13174,0 -5.68358,-2.55335 -5.68358,-5.68161 0,-3.13222 2.55184,-5.68506 5.68358,-5.68506 3.13067,0 5.6831,2.55284 5.6831,5.68506 0,3.12826 -2.55243,5.68161 -5.6831,5.68161 z m 28.41563,-22.73262 c -6.28069,0 -11.36624,5.08433 -11.36624,11.36595 0,6.28124 5.08555,11.36667 11.36624,11.36667 6.27962,0 11.36622,-5.08543 11.36622,-11.36667 0,-6.28162 -5.0866,-11.36595 -11.36622,-11.36595 z m 0,17.05101 c -3.13164,0 -5.68311,-2.55219 -5.68311,-5.68506 0,-3.13139 2.55147,-5.68162 5.68311,-5.68162 3.13125,0 5.68355,2.55023 5.68355,5.68162 0,3.13287 -2.5523,5.68506 -5.68355,5.68506 z m -28.41563,17.04829 c -6.28136,0 -11.36636,5.08505 -11.36636,11.3655 0,6.28044 5.085,11.36668 11.36636,11.36668 6.27951,0 11.36646,-5.08624 11.36646,-11.36668 0,-6.28045 -5.08695,-11.3655 -11.36646,-11.3655 z m 0,17.05172 c -3.13174,0 -5.68358,-2.55334 -5.68358,-5.68622 0,-3.13165 2.55184,-5.68045 5.68358,-5.68045 3.13067,0 5.6831,2.5488 5.6831,5.68045 0,3.13288 -2.55243,5.68622 -5.6831,5.68622 z m 28.41563,-22.73335 c -6.28069,0 -11.36624,5.08506 -11.36624,11.36668 0,6.27706 5.08555,11.36667 11.36624,11.36667 6.27962,0 11.36622,-5.08961 11.36622,-11.36667 0,-6.28162 -5.0866,-11.36668 -11.36622,-11.36668 z m 0,17.04713 c -3.13164,0 -5.68311,-2.55219 -5.68311,-5.68045 0,-3.13406 2.55147,-5.68505 5.68311,-5.68505 3.13125,0 5.68355,2.55099 5.68355,5.68505 0,3.12826 -2.5523,5.68045 -5.68355,5.68045 z M 80.83191,185.47906 H 75.148119 V 179.794 c 0,-3.13549 -2.545958,-5.68162 -5.68289,-5.68162 H 58.098587 c -3.13749,0 -5.68362,2.54613 -5.68362,5.68162 v 5.68506 h -5.68304 c -3.136836,0 -5.682976,2.54613 -5.682976,5.68161 v 11.36668 c 0,3.13891 2.54614,5.68505 5.682976,5.68505 h 5.68304 v 5.68045 c 0,3.14008 2.54613,5.68622 5.68362,5.68622 h 11.366642 c 3.136932,0 5.68289,-2.54614 5.68289,-5.68622 v -5.68045 h 5.683791 c 3.136602,0 5.682443,-2.54614 5.682443,-5.68505 v -11.36668 c 0,-3.13548 -2.545841,-5.68161 -5.682443,-5.68161 z m 0,17.04829 H 69.465229 v 11.3655 H 58.098587 v -11.3655 h -11.36666 v -11.36668 h 11.36666 V 179.794 h 11.366642 v 11.36667 H 80.83191 Z"
       id="path14921"
       style="display:none;stroke-width:5.68299"
       inkscape:label="path6497" /></g><g
     inkscape:groupmode="layer"
     id="layer4"
     inkscape:label="Layer 3"
     style="display:none"
     transform="translate(-10.764129,-100.27635)"><rect
       id="rect6266"
       width="190.905"
       height="199.63921"
       x="8.7342148"
       y="84.222786"
       style="stroke-width:0.264583" /></g><g
     inkscape:groupmode="layer"
     id="layer2"
     inkscape:label="Layer 2"
     style="display:none"
     transform="matrix(0.680136,0,0,0.90778612,19.163985,-37.328194)"><g
       id="g1011"
       transform="matrix(0.89640545,0,0,0.88583983,-23.460713,-16.598116)"
       style="fill:url(#linearGradient6492);fill-opacity:1"><g
         id="g946"
         style="fill:url(#linearGradient14785);fill-opacity:1">
	<g
   id="g944"
   style="fill:url(#linearGradient14783);fill-opacity:1">
		<g
   id="g942"
   style="fill:url(#linearGradient14781);fill-opacity:1">
			<path
   d="M 257.143,157.143 H 242.857 V 128.572 H 220.49 L 191.919,109.524 H 161.905 V 80.952 H 200 V 71.428 H 85.714 v 9.524 h 38.095 v 28.571 H 93.476 l -33.333,28.571 h -26.81 v 28.571 H 9.524 V 123.81 H 0 v 119.048 h 9.524 v -38.095 h 23.81 v 38.095 h 27.305 l 33.333,19.048 h 53.648 v -9.524 H 96.505 L 66.667,235.334 v -90.286 l 30.333,-26 h 92.033 l 25.252,16.833 v 16.5 h 9.524 v -14.286 h 9.524 v 114.286 h -9.524 v 9.524 h 19.048 v -23.81 h 14.286 v 9.524 h 38.095 V 142.857 H 257.143 Z M 33.334,195.238 H 9.524 V 176.19 h 23.81 z m 23.809,38.095 H 42.857 v -85.714 h 14.286 z m 95.238,-123.81 H 133.333 V 80.952 h 19.048 z m 104.762,119.048 h -14.286 v -61.905 h 14.286 z m 9.524,-76.19 h 19.048 v 85.714 h -19.048 z"
   id="path922"
   style="display:inline;fill:url(#linearGradient14777);fill-opacity:1" />
			
			
			
			
			
			
			<rect
   x="140.36606"
   y="252.381"
   width="94.79908"
   height="9.5240002"
   id="rect936"
   style="display:inline;fill:url(#linearGradient14779);fill-opacity:1;stroke-width:1.99536" />
			
			
		</g>
	</g>
</g><g
         id="g948"
         style="fill:url(#linearGradient14787);fill-opacity:1">
</g><g
         id="g950"
         style="fill:url(#linearGradient14789);fill-opacity:1">
</g><g
         id="g952"
         style="fill:url(#linearGradient14791);fill-opacity:1">
</g><g
         id="g954"
         style="fill:url(#linearGradient14793);fill-opacity:1">
</g><g
         id="g956"
         style="fill:url(#linearGradient14795);fill-opacity:1">
</g><g
         id="g958"
         style="fill:url(#linearGradient14797);fill-opacity:1">
</g><g
         id="g960"
         style="fill:url(#linearGradient14799);fill-opacity:1">
</g><g
         id="g962"
         style="fill:url(#linearGradient14801);fill-opacity:1">
</g><g
         id="g964"
         style="fill:url(#linearGradient14803);fill-opacity:1">
</g><g
         id="g966"
         style="fill:url(#linearGradient14805);fill-opacity:1">
</g><g
         id="g968"
         style="fill:url(#linearGradient14807);fill-opacity:1">
</g><g
         id="g970"
         style="fill:url(#linearGradient14809);fill-opacity:1">
</g><g
         id="g972"
         style="fill:url(#linearGradient14811);fill-opacity:1">
</g><g
         id="g974"
         style="fill:url(#linearGradient14813);fill-opacity:1">
</g><g
         id="g976"
         style="fill:url(#linearGradient14815);fill-opacity:1">
</g></g><path
       style="fill:url(#linearGradient2533);fill-opacity:1;stroke-width:2.35794"
       d="m 187.4565,752.3115 -48.33784,-27.71713 -0.47799,-150.67176 -0.47799,-150.67176 51.17378,-43.02303 51.17377,-43.02303 155.47579,-0.009 155.47576,-0.009 41.99214,27.70583 41.99212,27.70584 0.009,27.70584 0.0103,27.70581 h 17.68458 17.68458 v -23.57943 -23.57944 h 15.32663 15.32663 v 189.81359 189.81445 l -232.8465,-0.22542 -232.84692,-0.22526 z"
       id="path2291"
       transform="scale(0.26458333)" /><path
       style="fill:url(#linearGradient5639);fill-opacity:1;stroke-width:2.35794"
       d="M 57.769614,574.15922 V 431.50365 H 81.349048 104.92848 V 574.15922 716.8148 H 81.349048 57.769614 Z"
       id="path2293"
       transform="scale(0.26458333)" /><path
       style="fill:url(#linearGradient5647);fill-opacity:1;stroke-width:2.35794"
       d="m -55.411671,558.83259 v -30.65326 h 38.906067 38.906067 v 30.65326 30.65327 h -38.906067 -38.906067 z"
       id="path2295"
       transform="scale(0.26458333)" /><path
       style="fill:url(#linearGradient3291);fill-opacity:1;stroke-width:2.35794"
       d="m 364.30226,255.83686 v -45.97989 h 30.65326 30.65327 v 45.97989 45.9799 h -30.65327 -30.65326 z"
       id="path2297"
       transform="scale(0.26458333)" /><path
       style="display:inline;fill:url(#linearGradient5711);fill-opacity:1;stroke-width:2.35794"
       d="M 734.49938,598.91763 V 497.52606 h 23.57943 23.57944 V 598.91763 700.3092 h -23.57944 -23.57943 z"
       id="path2299"
       transform="scale(0.26458333)" /><path
       style="fill:url(#linearGradient5719);fill-opacity:1;stroke-width:2.35794"
       d="M 817.0274,590.66483 V 448.00925 h 30.65326 30.65327 V 590.66483 733.32041 H 847.68066 817.0274 Z"
       id="path2301"
       transform="scale(0.26458333)" /></g><g
     inkscape:label="Layer 1"
     inkscape:groupmode="layer"
     id="layer1"
     style="display:inline"
     transform="matrix(0.61261955,0,0,0.63753811,69.291686,1.9287714)"><rect
       style="fill:#000000;stroke-width:0.232574"
       id="rect195"
       width="100"
       height="100"
       x="60"
       y="100" /><text
       xml:space="preserve"
       style="font-size:61.2815px;fill:#000000;stroke-width:0.319174"
       x="68.24485"
       y="160.40103"
       id="text63"
       transform="scale(0.97561594,1.0249935)"><tspan
         sodipodi:role="line"
         id="tspan61"
         style="font-size:61.2815px;fill:#ffffff;stroke-width:0.319174"
         x="68.24485"
         y="160.40103">DE</tspan></text><text
       xml:space="preserve"
       style="font-size:77.4298px;fill:#000000;stroke-width:0.40328"
       x="95.924141"
       y="127.64749"
       id="text63-5"
       transform="scale(0.74425226,1.3436305)"><tspan
         sodipodi:role="line"
         id="tspan61-2"
         style="font-size:77.4298px;fill:#ffffff;stroke-width:0.40328"
         x="95.924141"
         y="127.64749">_</tspan></text><circle
       id="path917"
       style="fill:#ffdd55;stroke:#000000;stroke-width:0.264583"
       cx="140.37132"
       cy="183.41852"
       r="0.083099216" /></g><style
     type="text/css"
     id="style6495">
	.feather_een{fill:#0B1719;}
</style></svg>
